<svg width="125" height="125" viewBox="0 0 125 125" fill="none" xmlns="http://www.w3.org/2000/svg">
<circle cx="62.5" cy="62.5" r="62.5" fill="#4BD0A0"/>
<path d="M48.7974 18.7999L83.9522 23.6428C87.1559 24.0842 89.4012 27.0388 88.965 30.2055L79.1084 101.755C78.6682 104.95 75.7115 107.159 72.5079 106.718L37.3531 101.875C34.1494 101.434 31.904 98.4789 32.3403 95.3123L42.1929 23.7913C42.6331 20.5961 45.5937 18.3586 48.7974 18.7999Z" fill="white" stroke="black" stroke-miterlimit="10" stroke-linecap="round" stroke-linejoin="round"/>
<path d="M32.4058 94.8386L78.9644 101.252" stroke="black" stroke-miterlimit="10" stroke-linecap="round" stroke-linejoin="round"/>
<path d="M55.4037 101.324C57.2019 101.571 58.8604 100.315 59.1081 98.5164C59.3558 96.7183 58.0989 95.0598 56.3008 94.812C54.5026 94.5643 52.8441 95.8212 52.5964 97.6194C52.3487 99.4175 53.6056 101.076 55.4037 101.324Z" fill="white" stroke="black" stroke-miterlimit="10" stroke-linecap="round" stroke-linejoin="round"/>
<rect x="47.2173" y="25.8809" width="36.8099" height="63.1027" transform="rotate(7.84364 47.2173 25.8809)" stroke="black" stroke-linecap="round" stroke-linejoin="round"/>
<path fill-rule="evenodd" clip-rule="evenodd" d="M56.1266 55.9639C58.869 56.2868 60.8305 58.7718 60.5076 61.5143L59.5697 69.4793C59.2468 72.2218 56.7618 74.1832 54.0193 73.8603L35.2874 71.6547L29.4248 73.7711L29.753 70.9842C27.2392 70.4656 25.4972 68.0999 25.803 65.5034L26.7408 57.5383C27.0638 54.7959 29.5487 52.8344 32.2912 53.1573L56.1266 55.9639Z" fill="white"/>
<path d="M60.5076 61.5143L61.0041 61.5727L60.5076 61.5143ZM56.1266 55.9639L56.0681 56.4604L56.1266 55.9639ZM59.5697 69.4793L60.0663 69.5378L59.5697 69.4793ZM54.0193 73.8603L54.0778 73.3638L54.0193 73.8603ZM35.2874 71.6547L35.1177 71.1844C35.1907 71.1581 35.2688 71.1491 35.3459 71.1581L35.2874 71.6547ZM29.4248 73.7711L29.5946 74.2414C29.4316 74.3002 29.2498 74.2705 29.114 74.1628C28.9783 74.0551 28.908 73.8847 28.9283 73.7126L29.4248 73.7711ZM29.753 70.9842L29.854 70.4945C30.1081 70.5469 30.2799 70.7849 30.2496 71.0426L29.753 70.9842ZM25.803 65.5034L26.2995 65.5619L25.803 65.5034ZM26.7408 57.5383L26.2443 57.4799L26.2443 57.4799L26.7408 57.5383ZM32.2912 53.1573L32.2328 53.6539L32.2912 53.1573ZM60.011 61.4558C60.3016 58.9876 58.5363 56.7511 56.0681 56.4604L56.185 55.4673C59.2018 55.8225 61.3593 58.556 61.0041 61.5727L60.011 61.4558ZM59.0731 69.4209L60.011 61.4558L61.0041 61.5727L60.0663 69.5378L59.0731 69.4209ZM54.0778 73.3638C56.546 73.6544 58.7825 71.8891 59.0731 69.4209L60.0663 69.5378C59.7111 72.5545 56.9776 74.7121 53.9608 74.3569L54.0778 73.3638ZM35.3459 71.1581L54.0778 73.3638L53.9608 74.3569L35.229 72.1513L35.3459 71.1581ZM35.4572 72.125L29.5946 74.2414L29.2551 73.3008L35.1177 71.1844L35.4572 72.125ZM28.9283 73.7126L29.2564 70.9257L30.2496 71.0426L29.9214 73.8296L28.9283 73.7126ZM26.2995 65.5619C26.0244 67.8985 27.5921 70.0279 29.854 70.4945L29.652 71.4738C26.8863 70.9034 24.9701 68.3014 25.3064 65.4449L26.2995 65.5619ZM27.2374 57.5968L26.2995 65.5619L25.3064 65.4449L26.2443 57.4799L27.2374 57.5968ZM32.2328 53.6539C29.7645 53.3633 27.528 55.1286 27.2374 57.5968L26.2443 57.4799C26.5995 54.4631 29.333 52.3056 32.3497 52.6608L32.2328 53.6539ZM56.0681 56.4604L32.2328 53.6539L32.3497 52.6608L56.185 55.4673L56.0681 56.4604Z" fill="black"/>
<path fill-rule="evenodd" clip-rule="evenodd" d="M95.4266 39.9331C98.1691 40.256 100.131 42.741 99.8076 45.4835L98.971 52.589C98.648 55.3315 96.163 57.2929 93.4206 56.97L91.2005 56.7086L90.7642 60.2885L84.0954 55.872L69.5852 54.1635C66.8428 53.8406 64.8813 51.3556 65.2042 48.6131L66.0409 41.5076C66.3638 38.7651 68.8488 36.8037 71.5913 37.1266L95.4266 39.9331Z" fill="white"/>
<path d="M99.8076 45.4835L99.311 45.425L99.311 45.425L99.8076 45.4835ZM95.4266 39.9331L95.3681 40.4297L95.4266 39.9331ZM98.971 52.589L99.4675 52.6475L98.971 52.589ZM93.4206 56.97L93.479 56.4734L93.4206 56.97ZM91.2005 56.7086L90.7042 56.6481C90.7375 56.3748 90.9855 56.1798 91.259 56.212L91.2005 56.7086ZM90.7642 60.2885L91.2605 60.349C91.2395 60.521 91.131 60.6699 90.9736 60.7425C90.8163 60.8151 90.6326 60.801 90.4881 60.7053L90.7642 60.2885ZM84.0954 55.872L84.1539 55.3754C84.2317 55.3846 84.3062 55.4119 84.3715 55.4551L84.0954 55.872ZM69.5852 54.1635L69.6437 53.6669L69.5852 54.1635ZM65.2042 48.6131L64.7077 48.5546L64.7077 48.5546L65.2042 48.6131ZM66.0409 41.5076L66.5375 41.566L66.0409 41.5076ZM71.5913 37.1266L71.5328 37.6231L71.5913 37.1266ZM99.311 45.425C99.6017 42.9568 97.8364 40.7203 95.3681 40.4297L95.4851 39.4365C98.5018 39.7917 100.659 42.5252 100.304 45.542L99.311 45.425ZM98.4744 52.5305L99.311 45.425L100.304 45.542L99.4675 52.6475L98.4744 52.5305ZM93.479 56.4734C95.9473 56.7641 98.1838 54.9988 98.4744 52.5305L99.4675 52.6475C99.1123 55.6642 96.3788 57.8218 93.3621 57.4666L93.479 56.4734ZM91.259 56.212L93.479 56.4734L93.3621 57.4666L91.1421 57.2052L91.259 56.212ZM90.2678 60.228L90.7042 56.6481L91.6969 56.7691L91.2605 60.349L90.2678 60.228ZM84.3715 55.4551L91.0402 59.8716L90.4881 60.7053L83.8193 56.2889L84.3715 55.4551ZM69.6437 53.6669L84.1539 55.3754L84.0369 56.3686L69.5268 54.66L69.6437 53.6669ZM65.7008 48.6716C65.4102 51.1398 67.1755 53.3763 69.6437 53.6669L69.5268 54.66C66.51 54.3048 64.3525 51.5713 64.7077 48.5546L65.7008 48.6716ZM66.5375 41.566L65.7008 48.6716L64.7077 48.5546L65.5443 41.4491L66.5375 41.566ZM71.5328 37.6231C69.0646 37.3325 66.8281 39.0978 66.5375 41.566L65.5443 41.4491C65.8995 38.4324 68.633 36.2748 71.6497 36.63L71.5328 37.6231ZM95.3681 40.4297L71.5328 37.6231L71.6497 36.63L95.4851 39.4365L95.3681 40.4297Z" fill="black"/>
</svg>
