<svg width="125" height="125" viewBox="0 0 125 125" fill="none" xmlns="http://www.w3.org/2000/svg">
<circle cx="62.5" cy="62.5" r="62.5" fill="#4BD0A0"/>
<rect x="25" y="32.6086" width="76.087" height="59.7826" rx="7.82609" fill="white" stroke="black" stroke-linecap="round" stroke-linejoin="round"/>
<line x1="25.6345" y1="43.843" x2="100.587" y2="43.843" stroke="black" stroke-linecap="round" stroke-linejoin="round"/>
<mask id="mask0_1209_2223" style="mask-type:alpha" maskUnits="userSpaceOnUse" x="46" y="54" width="33" height="28">
<path d="M78.8078 59.369C74.0769 55.8829 68.3534 54.0046 62.4768 54.0095C56.6003 54.0145 50.8799 55.9025 46.1549 59.3965L62.5 81.5L78.8078 59.369Z" fill="#D9D9D9"/>
</mask>
<g mask="url(#mask0_1209_2223)">
<circle cx="62.6061" cy="79.6922" r="24.7874" transform="rotate(-29.5012 62.6061 79.6922)" stroke="black"/>
<circle cx="62.606" cy="79.6922" r="19.2792" transform="rotate(-29.5012 62.606 79.6922)" stroke="black"/>
<circle cx="62.4355" cy="79.645" r="13.8963" transform="rotate(-29.5012 62.4355 79.645)" stroke="black"/>
<circle cx="62.4355" cy="79.6451" r="8.63851" transform="rotate(-29.5012 62.4355 79.6451)" stroke="black"/>
<circle cx="62.4356" cy="79.645" r="3.38074" transform="rotate(-29.5012 62.4356 79.645)" stroke="black"/>
<circle cx="62.606" cy="79.6924" r="0.50148" transform="rotate(-29.5012 62.606 79.6924)" stroke="black"/>
</g>
<circle cx="74" cy="74" r="7.5" fill="white" stroke="black"/>
<path d="M73.1895 70H74.8105V75.8065H73.1895V70ZM74 79C73.7193 79 73.4807 78.8864 73.2842 78.6592C73.0947 78.4236 73 78.1374 73 77.8008C73 77.4642 73.0947 77.1823 73.2842 76.9551C73.4807 76.7195 73.7193 76.6017 74 76.6017C74.2807 76.6017 74.5158 76.7195 74.7053 76.9551C74.9018 77.1823 75 77.4642 75 77.8008C75 78.1374 74.9018 78.4236 74.7053 78.6592C74.5158 78.8864 74.2807 79 74 79Z" fill="black"/>
</svg>
