<svg width="180" height="180" viewBox="0 0 180 180" fill="none" xmlns="http://www.w3.org/2000/svg">
<circle r="90" transform="matrix(-1 0 0 1 90 90)" fill="#4BD0A0"/>
<path fill-rule="evenodd" clip-rule="evenodd" d="M61.2505 123.506C57.8079 120.533 55.8291 116.209 55.8291 111.661V90.409C55.8291 90.396 55.8291 90.383 55.8291 90.37V56.4347C55.8291 52.4751 59.039 49.2652 62.9987 49.2652C66.1181 49.2652 68.7722 51.2574 69.7581 54.0389V49.8138C69.7581 45.9675 72.8761 42.8495 76.7224 42.8495C80.5484 42.8495 83.6538 45.9347 83.6865 49.753V43.483C83.6865 39.6367 86.8045 36.5186 90.6508 36.5186C94.4971 36.5186 97.6151 39.6367 97.6151 43.483V70.6998L101.945 67.4471C106.865 63.7509 113.632 63.7343 118.57 67.4061C122.094 70.026 124.171 74.1583 124.171 78.5494L124.171 83.7246C124.171 87.5709 121.053 90.6889 117.207 90.6889C113.36 90.6889 110.242 87.571 110.242 83.7247V77.9431L98.0496 87.5025H98.0495V94.0156C98.0495 98.3378 101.553 101.842 105.876 101.842H110.242V97.6537C110.242 93.8074 113.36 90.689 117.207 90.689C121.053 90.689 124.171 93.807 124.171 97.6533V104.293C124.171 108.746 121.992 112.917 118.337 115.46L107.745 122.831C104.219 125.284 100.306 127.126 96.1698 128.282L91.4975 129.586C91.3928 129.747 91.2916 129.911 91.1942 130.077C87.2881 136.74 78.2967 138.229 72.4517 133.18L61.2505 123.506Z" fill="white"/>
<path d="M61.2505 123.506L60.9237 123.885L61.2505 123.506ZM55.8291 90.37H56.3292L56.3291 90.3712L55.8291 90.37ZM69.7581 54.0389H70.2581C70.2581 54.2824 70.0828 54.4904 69.8428 54.5317C69.6029 54.573 69.3682 54.4354 69.2868 54.206L69.7581 54.0389ZM83.6865 49.753H84.1865C84.1865 50.0283 83.9639 50.2518 83.6886 50.253C83.4133 50.2542 83.1888 50.0326 83.1865 49.7573L83.6865 49.753ZM97.6151 70.6998L97.9154 71.0996C97.7639 71.2134 97.5611 71.2318 97.3917 71.1471C97.2222 71.0624 97.1151 70.8893 97.1151 70.6998H97.6151ZM101.945 67.4471L102.245 67.8469V67.8469L101.945 67.4471ZM118.57 67.4061L118.272 67.8073H118.272L118.57 67.4061ZM124.171 78.5494H123.671H124.171ZM124.171 83.7246L124.671 83.7246V83.7246H124.171ZM110.242 77.9431L109.934 77.5496C110.084 77.4316 110.289 77.4098 110.461 77.4935C110.633 77.5772 110.742 77.7518 110.742 77.9431H110.242ZM98.0496 87.5025L98.3581 87.8959C98.2701 87.9649 98.1614 88.0025 98.0496 88.0025V87.5025ZM98.0495 87.5025H97.5495C97.5495 87.2263 97.7734 87.0025 98.0495 87.0025V87.5025ZM110.242 101.842H110.742C110.742 102.118 110.519 102.342 110.242 102.342V101.842ZM118.337 115.46L118.622 115.871L118.337 115.46ZM107.745 122.831L108.03 123.241L107.745 122.831ZM96.1698 128.282L96.3043 128.763L96.1698 128.282ZM91.4975 129.586L91.0784 129.314C91.1447 129.212 91.2459 129.138 91.363 129.105L91.4975 129.586ZM91.1942 130.077L91.6255 130.33L91.6255 130.33L91.1942 130.077ZM72.4517 133.18L72.7785 132.802L72.4517 133.18ZM56.3291 111.661C56.3291 116.064 58.2447 120.25 61.5773 123.128L60.9237 123.885C57.3711 120.816 55.3291 116.355 55.3291 111.661H56.3291ZM56.3291 90.409V111.661H55.3291V90.409H56.3291ZM56.3291 90.3712C56.3291 90.3838 56.3291 90.3964 56.3291 90.409H55.3291C55.3291 90.3956 55.3291 90.3822 55.3292 90.3687L56.3291 90.3712ZM55.3291 90.37V56.4347H56.3291V90.37H55.3291ZM55.3291 56.4347C55.3291 52.199 58.7629 48.7652 62.9987 48.7652V49.7652C59.3152 49.7652 56.3291 52.7513 56.3291 56.4347H55.3291ZM62.9987 48.7652C66.3364 48.7652 69.1749 50.8971 70.2294 53.8719L69.2868 54.206C68.3694 51.6178 65.8997 49.7652 62.9987 49.7652V48.7652ZM69.2581 54.0389V49.8138H70.2581V54.0389H69.2581ZM69.2581 49.8138C69.2581 45.6913 72.6 42.3495 76.7224 42.3495V43.3495C73.1523 43.3495 70.2581 46.2436 70.2581 49.8138H69.2581ZM76.7224 42.3495C80.8231 42.3495 84.1515 45.6562 84.1864 49.7488L83.1865 49.7573C83.1562 46.2132 80.2737 43.3495 76.7224 43.3495V42.3495ZM83.1865 49.753V43.483H84.1865V49.753H83.1865ZM83.1865 43.483C83.1865 39.3605 86.5284 36.0186 90.6508 36.0186V37.0186C87.0806 37.0186 84.1865 39.9128 84.1865 43.483H83.1865ZM90.6508 36.0186C94.7732 36.0186 98.1151 39.3605 98.1151 43.483H97.1151C97.1151 39.9128 94.2209 37.0186 90.6508 37.0186V36.0186ZM98.1151 43.483V70.6998H97.1151V43.483H98.1151ZM97.3148 70.3L101.645 67.0473L102.245 67.8469L97.9154 71.0996L97.3148 70.3ZM101.645 67.0473C106.742 63.2181 113.752 63.2008 118.869 67.0048L118.272 67.8073C113.511 64.2677 106.989 64.2838 102.245 67.8469L101.645 67.0473ZM118.869 67.0048C122.519 69.7191 124.671 74.0002 124.671 78.5494H123.671C123.671 74.3165 121.669 70.3329 118.272 67.8073L118.869 67.0048ZM124.671 78.5494L124.671 83.7246L123.671 83.7246L123.671 78.5494L124.671 78.5494ZM124.671 83.7246C124.671 87.847 121.329 91.1889 117.207 91.1889V90.1889C120.777 90.1889 123.671 87.2947 123.671 83.7246H124.671ZM117.207 91.1889C113.084 91.1889 109.742 87.8471 109.742 83.7247H110.742C110.742 87.2948 113.637 90.1889 117.207 90.1889V91.1889ZM109.742 83.7247V77.9431H110.742V83.7247H109.742ZM110.551 78.3366L98.3581 87.8959L97.7411 87.109L109.934 77.5496L110.551 78.3366ZM98.0496 88.0025H98.0495V87.0025H98.0496V88.0025ZM97.5495 94.0156V87.5025H98.5495V94.0156H97.5495ZM105.876 102.342C101.277 102.342 97.5495 98.614 97.5495 94.0156H98.5495C98.5495 98.0617 101.83 101.342 105.876 101.342V102.342ZM110.242 102.342H105.876V101.342H110.242V102.342ZM109.742 101.842V97.6537H110.742V101.842H109.742ZM109.742 97.6537C109.742 93.5313 113.084 90.189 117.207 90.189V91.189C113.637 91.189 110.742 94.0835 110.742 97.6537H109.742ZM117.207 90.189C121.329 90.189 124.671 93.5309 124.671 97.6533H123.671C123.671 94.0832 120.777 91.189 117.207 91.189V90.189ZM124.671 97.6533V104.293H123.671V97.6533H124.671ZM124.671 104.293C124.671 108.91 122.412 113.234 118.622 115.871L118.051 115.05C121.572 112.6 123.671 108.583 123.671 104.293H124.671ZM118.622 115.871L108.03 123.241L107.459 122.42L118.051 115.05L118.622 115.871ZM108.03 123.241C104.459 125.726 100.495 127.593 96.3043 128.763L96.0353 127.8C100.118 126.66 103.98 124.841 107.459 122.42L108.03 123.241ZM96.3043 128.763L91.6319 130.068L91.363 129.105L96.0353 127.8L96.3043 128.763ZM90.7628 129.824C90.8642 129.651 90.9694 129.481 91.0784 129.314L91.9165 129.859C91.8161 130.014 91.719 130.171 91.6255 130.33L90.7628 129.824ZM72.7785 132.802C78.3871 137.646 87.0148 136.217 90.7628 129.824L91.6255 130.33C87.5615 137.262 78.2063 138.811 72.1249 133.559L72.7785 132.802ZM61.5773 123.128L72.7785 132.802L72.1249 133.559L60.9237 123.885L61.5773 123.128Z" fill="black"/>
<path d="M83.6864 77.9783V67.3312V49.8149C83.6864 45.9686 80.5684 42.8506 76.7221 42.8506V42.8506C72.8758 42.8506 69.7578 45.9686 69.7578 49.8149V67.3312V85.9444" stroke="black" stroke-linecap="round" stroke-linejoin="round"/>
<path d="M58.3615 134.653C58.3615 139.198 62.0464 142.883 66.592 142.883H100.78C105.326 142.883 109.011 139.198 109.011 134.653C109.011 130.107 105.326 126.422 100.78 126.422H66.592C62.0464 126.422 58.3615 130.107 58.3615 134.653Z" fill="white" stroke="black" stroke-linecap="round" stroke-linejoin="round"/>
</svg>
