<svg width="180" height="75" viewBox="0 0 180 75" fill="none" xmlns="http://www.w3.org/2000/svg">
<mask id="mask0_186_1269" style="mask-type:alpha" maskUnits="userSpaceOnUse" x="0" y="0" width="180" height="75">
<rect width="180" height="75" fill="#F3F4F7"/>
</mask>
<g mask="url(#mask0_186_1269)">
<g opacity="0.8">
<ellipse rx="19.3582" ry="49.093" transform="matrix(0.5 0.866025 -0.74597 0.66598 131.057 37.4596)" stroke="#D85F68"/>
<ellipse rx="19.3582" ry="49.093" transform="matrix(0.5 0.866025 -0.74597 0.66598 99.0572 37.4596)" stroke="#D85F68"/>
<ellipse rx="19.3582" ry="49.093" transform="matrix(0.5 0.866025 -0.74597 0.66598 67.3009 37.4596)" stroke="#D85F68"/>
</g>
<g filter="url(#filter0_f_186_1269)">
<circle cx="70" cy="38" r="20" fill="#D85F68" fill-opacity="0.25"/>
</g>
<circle cx="37.5" cy="37.5" r="37.5" fill="#D85F68"/>
<path d="M28 46.708L36.82 39.112C37.636 38.392 38.332 37.768 38.908 37.24C39.484 36.688 39.952 36.184 40.312 35.728C40.672 35.272 40.924 34.828 41.068 34.396C41.236 33.964 41.32 33.496 41.32 32.992C41.32 31.96 41.032 31.132 40.456 30.508C39.88 29.86 39.028 29.536 37.9 29.536C36.604 29.536 35.584 29.896 34.84 30.616C34.12 31.312 33.76 32.524 33.76 34.252H28.36C28.36 31.396 29.164 29.14 30.772 27.484C32.404 25.828 34.78 25 37.9 25C39.364 25 40.636 25.204 41.716 25.612C42.82 25.996 43.744 26.548 44.488 27.268C45.232 27.964 45.784 28.804 46.144 29.788C46.528 30.772 46.72 31.84 46.72 32.992C46.72 33.856 46.564 34.684 46.252 35.476C45.94 36.244 45.508 36.988 44.956 37.708C44.428 38.428 43.804 39.136 43.084 39.832C42.364 40.504 41.596 41.176 40.78 41.848L35.596 46.168H47.08V50.632H28V46.708Z" fill="white"/>
<path d="M156.5 25L154.29 35.2903L144 37.5L154.29 39.7097L156.5 50L158.71 39.7097L169 37.5L158.71 35.2903L156.5 25Z" fill="#D85F68"/>
</g>
<defs>
<filter id="filter0_f_186_1269" x="30" y="-2" width="80" height="80" filterUnits="userSpaceOnUse" color-interpolation-filters="sRGB">
<feFlood flood-opacity="0" result="BackgroundImageFix"/>
<feBlend mode="normal" in="SourceGraphic" in2="BackgroundImageFix" result="shape"/>
<feGaussianBlur stdDeviation="10" result="effect1_foregroundBlur_186_1269"/>
</filter>
</defs>
</svg>
